<?xml version="1.0" standalone="no"?><!DOCTYPE svg PUBLIC "-//W3C//DTD SVG 1.1//EN" "http://www.w3.org/Graphics/SVG/1.1/DTD/svg11.dtd"><svg class="icon" width="200px" height="199.80px" viewBox="0 0 1025 1024" version="1.1" xmlns="http://www.w3.org/2000/svg"><path fill="#333333" d="M950.882285 932.546858l0-621.708572q0-7.423768-5.43983-12.863598t-12.863598-5.43983l-621.708572 0q-7.423768 0-12.863598 5.43983t-5.43983 12.863598l0 621.708572q0 7.423768 5.43983 12.863598t12.863598 5.43983l621.708572 0q7.423768 0 12.863598-5.43983t5.43983-12.863598zM1024.031999 310.838286l0 621.708572q0 37.726821-26.847161 64.573982t-64.573982 26.847161l-621.708572 0q-37.726821 0-64.573982-26.847161t-26.847161-64.573982l0-621.708572q0-37.726821 26.847161-64.573982t64.573982-26.847161l621.708572 0q37.726821 0 64.573982 26.847161t26.847161 64.573982zM804.614856 91.421143l0 91.421143-73.149714 0 0-91.421143q0-7.423768-5.43983-12.863598t-12.863598-5.43983l-621.708572 0q-7.423768 0-12.863598 5.43983t-5.43983 12.863598l0 621.708572q0 7.423768 5.43983 12.863598t12.863598 5.43983l91.421143 0 0 73.149714-91.421143 0q-37.726821 0-64.573982-26.847161t-26.847161-64.573982l0-621.708572q0-37.726821 26.847161-64.573982t64.573982-26.847161l621.708572 0q37.726821 0 64.573982 26.847161t26.847161 64.573982z" /></svg>