<?xml version="1.0" standalone="no"?><!DOCTYPE svg PUBLIC "-//W3C//DTD SVG 1.1//EN" "http://www.w3.org/Graphics/SVG/1.1/DTD/svg11.dtd"><svg class="icon" width="200px" height="200.00px" viewBox="0 0 1024 1024" version="1.1" xmlns="http://www.w3.org/2000/svg"><path fill="#333333" d="M540.744159 388.270001l95.876628 93.608981L374.640074 743.903697l-130.641409 36.377512 35.811624-131.077338L540.744159 388.270001zM958.70846 244.020666l0 535.956621c0 98.623181-80.000032 178.709171-178.711218 178.709171L243.998665 958.686459c-98.623181 0-178.709171-80.08599-178.709171-178.709171L65.289494 244.020666c0-98.755188 80.08599-178.709171 178.709171-178.709171l535.998577 0C878.708428 65.311495 958.70846 145.265478 958.70846 244.020666zM869.374852 288.643979c0-73.979922-60.021002-134.042879-133.998877-134.042879L288.623002 154.6011c-73.979922 0-133.912919 60.062957-133.912919 134.042879l0 446.709995c0 73.979922 59.932997 133.956921 133.912919 133.956921l446.752973 0c73.977875 0 133.998877-59.977 133.998877-133.956921L869.374852 288.643979zM665.671427 263.34478l-51.427276 51.427276 96.268554 93.215008 49.856501-49.856501c26.216081-26.216081 26.216081-68.615751 0-94.785783C734.155171 237.216703 691.755502 237.216703 665.671427 263.34478z" /></svg>